# xmcd CD Database Entry
#
# Track frame offsets:
# 150
# 15125
# 31522
# 50539
# 65115
# 74830
# 84775
# 98162
# 119162
# 134765
# 157565
# 172405
# 192295
# 214040
# 227195
# 249190
#
# Disc length: 3504 seconds
#
# Revision: 1
# Processed by: cddbd v1.4b42PL0 Copyright (c) Steve Scherf et al.
# Submitted via: tcd 2.0b
#
DISCID=da0dae10
DTITLE=Fred Kaplan - SIGNIFYIN'
DYEAR=1900
DGENRE=
TTITLE0=Side Pocket
TTITLE1=Chocolate Drop
TTITLE2=Four Thirty-One A.M. Blues
TTITLE3=Droppin' In
TTITLE4=My Help Is On The Way
TTITLE5=Bigfoot Swing
TTITLE6=Roadhouse SPecial
TTITLE7=Lock Down
TTITLE8=Royal Biltmore BOogle
TTITLE9=Fred's Blues
TTITLE10=Sunnyland Special
TTITLE11=The Honeydripper
TTITLE12=Slow Freight
TTITLE13=L.G. Boogie
TTITLE14=Signifyin'
TTITLE15=Gumbo Grinder
EXTD=
EXTT0=
EXTT1=
EXTT2=
EXTT3=
EXTT4=
EXTT5=
EXTT6=
EXTT7=
EXTT8=
EXTT9=
EXTT10=
EXTT11=
EXTT12=
EXTT13=
EXTT14=
EXTT15=
PLAYORDER=
